<?xml version="1.0" encoding="utf-8"?>
<!-- Generator: Adobe Illustrator 22.1.0, SVG Export Plug-In . SVG Version: 6.00 Build 0)  -->
<svg version="1.1" id="Layer_1" xmlns="http://www.w3.org/2000/svg" xmlns:xlink="http://www.w3.org/1999/xlink" x="0px" y="0px"
	 viewBox="0 0 120 24" style="enable-background:new 0 0 120 24;" xml:space="preserve">
<style type="text/css">
	.st0{clip-path:url(#SVGID_2_);}
	.st1{fill:#FFFFFF;}
	.st2{fill:#FF0000;}
</style>
<g>
	<defs>
		<rect id="SVGID_1_" width="120" height="24"/>
	</defs>
	<clipPath id="SVGID_2_">
		<use xlink:href="#SVGID_1_"  style="overflow:visible;"/>
	</clipPath>
	<g class="st0">
		<path class="st1" d="M1.7,21.9H0v-2h0.8v1.3h2.4v-1.3h0.8v2H2.4v1.3H1.7V21.9z"/>
		<path class="st1" d="M5.6,19.9h4.1v3.3H5.6V19.9z M8.8,20.5H6.4v2h2.4V20.5z"/>
		<path class="st1" d="M11.1,19.9h0.8v2.6h2.4v-2.6h0.8v3.3h-4.1L11.1,19.9L11.1,19.9z"/>
		<path class="st1" d="M16.6,19.9h4.1v2h-1.6l1.1,0.9l-0.5,0.5l-1.6-1.3h-0.5v1.3h-0.8L16.6,19.9L16.6,19.9z M19.9,20.5h-2.4v0.7
			h2.4V20.5z"/>
		<path class="st1" d="M24.5,19.9h4.1v2h-1.6l1.1,0.9l-0.5,0.5l-1.6-1.3h-0.5v1.3h-0.8L24.5,19.9L24.5,19.9z M27.7,20.5h-2.4v0.7
			h2.4V20.5z"/>
		<path class="st1" d="M30,19.9h0.8v3.3H30V19.9z"/>
		<path class="st1" d="M32.2,19.9h4.1v0.7h-3.3v2h2.4v-0.7h-1.6v-0.7h2.4v2h-4.1V19.9z"/>
		<path class="st1" d="M43.9,21.9h-1.6v-2h0.8v1.3h2.4v-1.3h0.8v2h-1.6v1.3h-0.8V21.9z"/>
		<path class="st1" d="M47.8,19.9h4.1v3.3h-4.1V19.9z M51.1,20.5h-2.4v2h2.4V20.5z"/>
		<path class="st1" d="M53.4,19.9h0.8v2.6h2.4v-2.6h0.8v3.3h-4.1L53.4,19.9L53.4,19.9z"/>
		<path class="st1" d="M58.9,19.9H63v2h-1.6l1.1,0.9l-0.5,0.5l-1.6-1.3h-0.5v1.3h-0.8L58.9,19.9L58.9,19.9z M62.2,20.5h-2.4v0.7h2.4
			V20.5z"/>
		<path class="st1" d="M66.7,19.9h4.1v0.7h-3.3v2h3.3v0.7h-4.1V19.9z"/>
		<path class="st1" d="M72.2,19.9H73v1.3h2.4v-1.3h0.8v3.3h-0.8v-1.3H73v1.3h-0.8V19.9z"/>
		<path class="st1" d="M77.8,19.9h4.1v3.3h-4.1V19.9z M81.1,20.5h-2.4v2h2.4V20.5z"/>
		<path class="st1" d="M83.3,19.9h0.8v3.3h-0.8V19.9z"/>
		<path class="st1" d="M85.6,19.9h4.1v0.7h-3.3v2h3.3v0.7h-4.1V19.9z"/>
		<path class="st1" d="M91.1,19.9h4.1v0.7H92v0.7h1.6v0.7H92v0.7h3.3v0.7h-4.1V19.9z"/>
		<path class="st1" d="M4.4,16.3l-0.8-1.7h4.6L6,10.5l-3.4,5.8H0l6-9.9l5.9,9.9H4.4z"/>
		<path class="st1" d="M11.1,16.3V6.4h7.4l1.7,1.8h-6.8v2.2h5.2v1.7h-5.2l-0.1,4.2H11.1z"/>
		<path class="st1" d="M27.2,6.4l1.6,1.8h-3.9v8h-2.4v-8h-2.6l-1.6-1.8H27.2z"/>
		<path class="st1" d="M37.3,14.6v1.6H28V6.4h7.4l1.7,1.8h-6.8v2.2h5.2v1.7h-5.2v2.5L37.3,14.6L37.3,14.6z"/>
		<path class="st1" d="M46.5,10c-0.2,0.5-0.4,0.8-0.8,1.1c-0.3,0.3-0.7,0.6-1.2,0.8c-0.5,0.2-1,0.3-1.6,0.3l3.6,4.2h-2.4l-3.6-4.2
			h-1.2v4.2H37v-5.8h6.2c0.4-0.1,0.7-0.2,0.9-0.3c0.2-0.2,0.4-0.5,0.4-0.8c0-0.4-0.1-0.7-0.4-0.9c-0.3-0.2-0.5-0.3-0.9-0.3h-5
			l-1.8-1.7H43c0.6,0,1.1,0.1,1.6,0.3c0.5,0.2,0.9,0.5,1.2,0.8c0.3,0.3,0.5,0.7,0.7,1.2C46.7,9.1,46.7,9.5,46.5,10z"/>
		<path class="st1" d="M53.3,10.4c0.9,0,1.6,0.2,2.1,0.6c0.5,0.4,0.7,1.1,0.7,2c0,0.5-0.1,1-0.2,1.4c-0.1,0.4-0.3,0.8-0.5,1
			c-0.3,0.3-0.6,0.5-1,0.6c-0.4,0.2-0.9,0.2-1.5,0.2h-5.4L46,14.6h7.1c0.3,0,0.5-0.1,0.7-0.3c0.2-0.2,0.3-0.6,0.3-1
			c-0.1-0.5-0.1-0.8-0.3-0.9c-0.2-0.2-0.4-0.2-0.7-0.2h-4c-0.5,0-0.9-0.1-1.2-0.2c-0.3-0.1-0.7-0.3-0.9-0.5
			c-0.2-0.3-0.4-0.6-0.5-0.9c-0.1-0.4-0.2-0.7-0.2-1.2c0-0.5,0.1-0.9,0.2-1.3c0.1-0.4,0.3-0.7,0.5-1c0.3-0.3,0.6-0.5,1-0.6
			c0.4-0.2,0.9-0.2,1.5-0.2H54l1.9,1.8h-6.7c-0.3,0.1-0.4,0.1-0.6,0.3c-0.1,0.1-0.2,0.5-0.3,1c0,0.3,0.1,0.6,0.2,0.7
			c0.1,0.1,0.3,0.2,0.7,0.3L53.3,10.4L53.3,10.4z"/>
		<path class="st1" d="M65.8,16.3h-2.4v-4.1h-5.2v4.1h-2.4V6.5h2.4v4h5.2v-4h2.4V16.3z"/>
		<path class="st1" d="M71,6.4c1.7,0,3.1,0.4,4,1.2s1.3,2.1,1.3,3.8c0,1.7-0.4,3-1.3,3.8c-0.9,0.8-2.2,1.2-4,1.2
			c-1.8,0-3.1-0.4-4-1.2c-0.9-0.8-1.3-2.1-1.3-3.8c0-1.7,0.4-3,1.3-3.8S69.3,6.4,71,6.4z M71,14.7c0.5,0,1-0.1,1.4-0.3
			c0.4-0.2,0.7-0.4,0.9-0.7c0.2-0.3,0.4-0.6,0.5-0.9c0.1-0.3,0.2-0.7,0.2-1.2c0-0.5-0.1-0.9-0.2-1.2c-0.1-0.3-0.3-0.6-0.5-0.9
			c-0.2-0.3-0.5-0.5-0.9-0.7c-0.4-0.2-0.9-0.3-1.4-0.3c-0.5,0-1,0.1-1.4,0.3c-0.4,0.2-0.7,0.4-0.9,0.7c-0.2,0.3-0.4,0.6-0.5,0.9
			c-0.1,0.3-0.2,0.7-0.2,1.2c0,0.5,0.1,0.9,0.2,1.2c0.1,0.3,0.3,0.6,0.5,0.9c0.2,0.3,0.5,0.5,0.9,0.7C70,14.6,70.5,14.7,71,14.7z"/>
		<path class="st1" d="M85.8,14.5v1.8h-5.4c-0.7,0-1.3-0.2-1.8-0.4c-0.6-0.3-1.1-0.6-1.5-1.1c-0.4-0.5-0.8-1-1-1.6
			c-0.2-0.6-0.3-1.3-0.3-2s0.1-1.4,0.3-2c0.2-0.6,0.5-1.1,1-1.5s0.9-0.8,1.5-1c0.6-0.3,1.2-0.4,1.8-0.4h4l1.5,1.8h-5.4
			c-0.3,0-0.7,0.1-0.9,0.3c-0.3,0.2-0.5,0.4-0.7,0.7c-0.2,0.3-0.4,0.7-0.5,1.1c-0.1,0.5-0.2,0.8-0.2,1.2s0.1,0.7,0.2,1.1
			c0.1,0.4,0.3,0.7,0.5,1c0.2,0.3,0.5,0.6,0.8,0.8c0.3,0.2,0.7,0.3,1,0.3L85.8,14.5L85.8,14.5z"/>
		<path class="st1" d="M95.2,16.3h-3.1l-3.8-4v4h-2.4V6.4l2.4,0.1v3.7l3.6-3.8h3.1L90.2,11L95.2,16.3z"/>
		<path class="st2" d="M120,9.2c0,1.1-1,2-2.2,2s-2.2-0.9-2.2-2c0-1.1,1-2,2.2-2C119,7.2,120,8.1,120,9.2z"/>
		<path class="st2" d="M101.1,22.8c0,0,2.8-1.6,3.1-4l0.2-6.2l0.2-5.4c0,0,0-2.1,1-2.8c0,0,0.5-0.7,0.8,0.2l1.2,2.5l4.8,9.6l1.6,3.2
			c0,0,1.3,2.3,5.9,4.2c0,0,0.2,0-0.4-0.9l-1.4-2.6l-4.2-7.7l-4.2-7.7L107,0c0,0-4.8,1.2-5.2,6.2l-0.3,7.4l-0.5,8.5L101.1,22.8
			L101.1,22.8z"/>
	</g>
</g>
</svg>
